<?xml version="1.0" standalone="no"?><!DOCTYPE svg PUBLIC "-//W3C//DTD SVG 1.1//EN" "http://www.w3.org/Graphics/SVG/1.1/DTD/svg11.dtd"><svg t="1678953221050" class="icon" viewBox="0 0 1024 1024" version="1.1" xmlns="http://www.w3.org/2000/svg" p-id="29153" width="32" height="32" xmlns:xlink="http://www.w3.org/1999/xlink"><path d="M391.250132 807.335626c-42.05609-77.114947-66.333435-159.535668-73.871278-247.269329h-8.574016c-48.553666 0-97.107332 0.079863-145.660998-0.067577-9.636809-0.029693-19.328907-0.416721-28.894044-1.523541-23.357896-2.701009-39.091942-21.18214-39.156446-46.185419-0.139248-53.695618 8.848417-105.933223 29.341481-155.55685 44.398739-107.513079 120.602429-184.582975 227.336331-230.466348 57.890476-24.885533 119.258067-32.5401 182.044763-30.576287 129.63924 4.054586 270.051802 84.184875 340.114227 211.365767 9.856944 17.89342 18.351097 36.695026 25.725119 55.754651 7.135457 18.442222 4.108852 36.338714-10.120083 50.988465-13.446686 13.846001-30.079703 18.018334-48.479946 12.698226-16.10674-4.65663-24.748332-17.227894-31.614507-31.735325-8.348761-17.638472-16.339162-35.635305-26.655831-52.117811-35.586158-56.850209-84.692722-98.401523-146.163726-125.2908a67.461756 67.461756 0 0 0-4.7068-1.851184c-0.383957-0.135153-0.889756 0.076791-2.047771 0.21092 1.046411 2.248452 1.870638 4.361751 2.96722 6.322492 40.982034 73.303022 65.215352 151.684515 71.181531 235.544819 0.402387 5.662086 2.755275 6.524197 7.704737 6.511911 53.62497-0.122866 107.24994-0.09215 160.87491 0.057337 5.996896 0.016382 12.097205 0.491465 17.96714 1.668933 22.82138 4.577791 36.588542 21.113539 36.712432 44.491913 0.60614 114.277889-38.855424 212.444942-119.396291 293.634953-66.032412 66.564833-145.214584 108.240037-238.423985 120.87683-120.544067 16.342234-228.160558-14.843266-322.607836-91.405315-53.384357-43.275537-93.78892-96.393684-119.304142-160.328155-4.190763-10.499944-7.193818-22.327867-7.084262-33.505623 0.205801-20.895452 14.622106-37.308333 34.05033-42.610012 19.468156-5.312941 40.092278 2.373366 52.353304 20.625146 6.147407 9.151487 11.035436 19.202969 15.966468 29.110084 19.401603 38.979314 42.762571 75.053866 75.287312 104.575551 25.819316 23.435711 54.891516 41.71616 86.994417 55.23759 1.325931 0.558018 2.706129 1.004432 4.092469 1.39146 0.362455 0.101365 0.841634-0.219111 2.047771-0.577472z m118.587422 11.228951c3.485306-4.747756 6.023517-7.948422 8.289376-11.331339 42.94687-64.126962 70.945014-134.489385 86.866431-209.773625 2.550498-12.058297 3.217048-24.513862 4.770281-36.914138H413.217592c12.704369 93.464348 42.44619 179.605868 96.619962 258.019102z m1.705793-610.387189c-43.335946 47.509303-106.346873 212.839138-97.37559 254.276801h193.377126c-9.168893-93.558545-40.821284-177.961508-96.001536-254.276801z m116.129074 605.747964c6.32454-2.673365 11.200282-4.474379 15.849745-6.740237 42.356088-20.643576 77.531668-50.397683 107.927752-85.995104 33.729854-39.501496 60.727663-82.828227 73.412577-133.878126 2.159374-8.689715 3.133089-17.674308 4.831715-27.557873-41.257459 0-80.812197 0.038908-120.366935-0.062457-3.858-0.010239-4.944342 1.650503-5.172668 5.135808-0.489417 7.461052-1.059721 14.930296-1.987362 22.348345-9.655239 77.203001-33.039756 150.001248-70.230342 218.354809-1.221495 2.244357-2.320124 4.557314-4.264482 8.394835zM317.641992 461.247028c7.284944-87.339466 32.463308-168.923673 73.73715-245.913705-55.486394 21.573264-100.484106 56.711984-136.192107 103.806613-31.937031 42.120594-53.160126 88.91113-60.684659 142.107092h123.139616z" fill="#1CE89F" p-id="29154"></path></svg>