<?xml version="1.0" standalone="no"?><!DOCTYPE svg PUBLIC "-//W3C//DTD SVG 1.1//EN" "http://www.w3.org/Graphics/SVG/1.1/DTD/svg11.dtd"><svg t="1648113686635" class="icon" viewBox="0 0 1024 1024" version="1.1" xmlns="http://www.w3.org/2000/svg" p-id="3658" width="16" height="16" xmlns:xlink="http://www.w3.org/1999/xlink"><defs><style type="text/css">@font-face { font-family: feedback-iconfont; src: url("//at.alicdn.com/t/font_1031158_u69w8yhxdu.woff2?t=1630033759944") format("woff2"), url("//at.alicdn.com/t/font_1031158_u69w8yhxdu.woff?t=1630033759944") format("woff"), url("//at.alicdn.com/t/font_1031158_u69w8yhxdu.ttf?t=1630033759944") format("truetype"); }
</style></defs><path d="M704 202.666667a96 96 0 0 1 96 96v554.666666a96 96 0 0 1-96 96H213.333333A96 96 0 0 1 117.333333 853.333333V298.666667A96 96 0 0 1 213.333333 202.666667h490.666667z m0 64H213.333333A32 32 0 0 0 181.333333 298.666667v554.666666a32 32 0 0 0 32 32h490.666667a32 32 0 0 0 32-32V298.666667a32 32 0 0 0-32-32z" fill="#fff" p-id="3659"></path><path d="M277.333333 362.666667m32 0l298.666667 0q32 0 32 32l0 0q0 32-32 32l-298.666667 0q-32 0-32-32l0 0q0-32 32-32Z" fill="#fff" p-id="3660"></path><path d="M277.333333 512m32 0l298.666667 0q32 0 32 32l0 0q0 32-32 32l-298.666667 0q-32 0-32-32l0 0q0-32 32-32Z" fill="#fff" p-id="3661"></path><path d="M277.333333 661.333333m32 0l170.666667 0q32 0 32 32l0 0q0 32-32 32l-170.666667 0q-32 0-32-32l0 0q0-32 32-32Z" fill="#fff" p-id="3662"></path><path d="M320 138.666667h512A32 32 0 0 1 864 170.666667v576a32 32 0 0 0 64 0V170.666667A96 96 0 0 0 832 74.666667H320a32 32 0 0 0 0 64z" fill="#fff" p-id="3663"></path></svg>