<?xml version="1.0" standalone="no"?><!DOCTYPE svg PUBLIC "-//W3C//DTD SVG 1.1//EN" "http://www.w3.org/Graphics/SVG/1.1/DTD/svg11.dtd"><svg t="1649252359484" class="icon" viewBox="0 0 1024 1024" version="1.1" xmlns="http://www.w3.org/2000/svg" p-id="7218" xmlns:xlink="http://www.w3.org/1999/xlink" width="20" height="20"><defs><style type="text/css">@font-face { font-family: feedback-iconfont; src: url("//at.alicdn.com/t/font_1031158_u69w8yhxdu.woff2?t=1630033759944") format("woff2"), url("//at.alicdn.com/t/font_1031158_u69w8yhxdu.woff?t=1630033759944") format("woff"), url("//at.alicdn.com/t/font_1031158_u69w8yhxdu.ttf?t=1630033759944") format("truetype"); }
</style></defs><path d="M640 320 192 320C156.608 320 128 348.608 128 384l0 512c0 35.328 28.608 64 64 64l448 0c35.392 0 64-28.672 64-64L704 384C704 348.608 675.392 320 640 320zM640 896 192 896 192 384l448 0L640 896zM832 128 352 128C334.336 128 320 142.336 320 160S334.336 192 352 192L832 192l0 544c0 17.664 14.336 32 32 32s32-14.336 32-32L896 192C896 156.608 867.392 128 832 128z" p-id="7219" fill="#ffffff"></path></svg>