<?xml version="1.0" standalone="no"?><!DOCTYPE svg PUBLIC "-//W3C//DTD SVG 1.1//EN" "http://www.w3.org/Graphics/SVG/1.1/DTD/svg11.dtd"><svg t="1649247874956" class="icon" viewBox="0 0 1024 1024" version="1.1" xmlns="http://www.w3.org/2000/svg" p-id="1354" xmlns:xlink="http://www.w3.org/1999/xlink" width="200" height="200"><defs><style type="text/css">@font-face { font-family: feedback-iconfont; src: url("//at.alicdn.com/t/font_1031158_u69w8yhxdu.woff2?t=1630033759944") format("woff2"), url("//at.alicdn.com/t/font_1031158_u69w8yhxdu.woff?t=1630033759944") format("woff"), url("//at.alicdn.com/t/font_1031158_u69w8yhxdu.ttf?t=1630033759944") format("truetype"); }
</style></defs><path d="M62 511.694C62.05043076 302.10374551 207.3616376 119.15232734 411.37068974 73.49513398 523.82801709 48.32907734 630.85818974 64.66989658 731.7125 120.69509083 744.03706924 127.53842715 749.69698291 139.03336602 747.29181026 151.68247842 745.1 163.22016817 735.58793076 172.138625 723.36034443 174.03502607 716.0866376 175.16200449 709.64698291 172.80315107 703.42068974 169.27852607 667.05215557 148.66689658 628.32887949 134.42839209 587.40603418 125.99178417 409.38448291 89.28028057 224.22112051 185.61934443 151.67025898 352.59130214 125.31810342 413.24090557 114.37844786 476.46307285 119.24698291 542.36270234 131.15258633 703.50556924 243.36551709 843.04591367 397.75431026 888.975125 608.45905214 951.66101709 828.14051709 831.92400898 888.55301709 620.18089209 918.39655214 515.57618076 905.66853418 414.93523291 853.28232734 319.52879316 847.12974102 308.32530576 845.93491367 297.41715107 853.45689658 286.69163398 865.4866376 269.52696583 890.25991367 271.08528418 900.95129316 289.68002158 916.7633624 317.1777374 929.29741367 346.1521124 938.90258633 376.39335342 957.55043076 435.10772393 964.00172393 495.20161602 957.8375 556.4380045 939.41853417 739.42045684 812.67370683 892.30935342 637.21637949 943.78012051 388.90172393 1016.62414209 130.05474102 864.03445684 72.91637949 611.06808183 65.53405214 578.37864658 61.99612051 545.22284082 62 511.694ZM624.12564658 512.50861602C624.12564658 532.76691817 634.91459082 551.486375 652.42835791 561.61552607 669.94216367 571.74471582 691.5200126 571.74471582 709.03381924 561.61552607 726.54758633 551.486375 737.33653057 532.76691817 737.33653057 512.50861602 737.33653057 492.25031474 726.54758633 473.53085791 709.03381924 463.40166816 691.5200126 453.27251709 669.94216367 453.27251709 652.42835791 463.40166816 634.91459082 473.53085791 624.12564658 492.25031474 624.12564658 512.50861602L624.12564658 512.50861602ZM454.36582285 512.50861602C454.36582285 543.82524102 479.70893076 569.21241816 510.97124551 569.21241816 542.23359893 569.21241816 567.57670684 543.82524102 567.57670684 512.50861602 567.57670684 492.25031474 556.7877626 473.53085791 539.2739955 463.40166816 521.76018974 453.27251709 500.18234083 453.27251709 482.66853417 463.40166816 465.15476709 473.53085791 454.36582285 492.25031474 454.36582285 512.50861602ZM284.71896582 512.50861602C284.71896582 532.76691817 295.50790918 551.486375 313.02167715 561.61552607 330.53548291 571.74471582 352.11333183 571.74471582 369.6271376 561.61552607 387.14090557 551.486375 397.92984893 532.76691817 397.92984893 512.50861602 397.92984893 492.25031474 387.14090557 473.53085791 369.6271376 463.40166816 352.11333183 453.27251709 330.53548291 453.27251709 313.02167715 463.40166816 295.50790918 473.53085791 284.71896582 492.25031474 284.71896582 512.50861602L284.71896582 512.50861602Z" p-id="1355" fill="#55c8dd"></path></svg>