<?xml version="1.0" encoding="utf-8"?>
<!-- Generator: Adobe Illustrator 24.3.0, SVG Export Plug-In . SVG Version: 6.00 Build 0)  -->
<svg version="1.1" id="图层_1" xmlns="http://www.w3.org/2000/svg" xmlns:xlink="http://www.w3.org/1999/xlink" x="0px" y="0px"
	 viewBox="0 0 165 166.2" style="enable-background:new 0 0 165 166.2;" xml:space="preserve">
<style type="text/css">
	.st0{fill:#55c8dd;}
</style>
<g id="图层_2_1_">
	<g id="图层_1-2">
		<g id="算力">
			<path id="路径_3" class="st0" d="M98.8,56.7H66.1c-5.3-0.3-10,3.7-10.3,9.1c0,0,0,0,0,0c0,0.4,0,0.8,0,1.2v33.8
				c0,5.1,4.1,9.2,10.3,9.2h33.8c5.1,0,9.2-4.1,9.2-10.3V67c0.3-5.3-3.8-9.9-9.1-10.3C99.6,56.7,99.2,56.7,98.8,56.7z M96.8,69.1
				v29.7H68.1V69.1H96.8z"/>
			<path id="路径_4" class="st0" d="M157.7,90c4.1,0.2,7.5-3,7.7-7.1c0.2-4.1-3-7.5-7.1-7.7c-0.2,0-0.4,0-0.5,0H138V62.9h19.7
				c4.1,0.2,7.5-3,7.7-7.1c0.2-4.1-3-7.5-7.1-7.7c-0.2,0-0.4,0-0.5,0H138v-1.2c0.1-11.5-9.1-20.8-20.6-20.9c0,0,0,0,0,0h-1.6V7.5
				c-0.3-4-3.4-7.1-7.4-7.4c-3.7,0-6.2,2.5-6.2,7.4v19.7H90V7.5c-0.3-4-3.4-7.1-7.4-7.4C78.7,0,75.4,3,75.2,6.9c0,0,0,0,0,0
				c0,0.2,0,0.4,0,0.6v19.7H62.9V7.5c-0.2-4.1-3.6-7.3-7.7-7.1c-3.9,0.1-7,3.2-7.1,7.1v19.7h-1.2C35.4,27.1,26.1,36.3,26,47.8
				c0,0,0,0,0,0v1.6H7.5c-4.1-0.3-7.6,2.8-7.8,6.9s2.8,7.6,6.9,7.8c0.3,0,0.6,0,0.9,0h19.7v12.3H7.5c-3-0.9-6.2,0.8-7.2,3.8
				c0,0,0,0,0,0C0.1,81,0,81.8,0.1,82.6c0.3,4,3.4,7.1,7.4,7.4h19.7v12.3H7.5c-4.1-0.2-7.5,3-7.7,7.1c-0.2,4.1,3,7.5,7.1,7.7
				c0.2,0,0.4,0,0.5,0h19.7v1.2c-0.1,11.5,9.1,20.8,20.6,20.9h1.6V159c0.2,4.1,3.6,7.3,7.7,7.1c3.9-0.1,7-3.2,7.1-7.1v-19.7h12.3
				V159c0.2,4.1,3.6,7.3,7.7,7.1c3.9-0.1,7-3.2,7.1-7.1v-19.7h12.3V159c0.2,4.1,3.6,7.3,7.7,7.1c3.9-0.1,7-3.2,7.1-7.1v-19.7h1.2
				c11.1,0,18.2-8.6,18.2-20.9v-2.5h19.7c4.1,0,7.4-3.3,7.4-7.4c0-4.1-3.3-7.4-7.4-7.4H138V90H157.7z M124.4,46.9v71.4
				c0.2,3.2-2.2,6-5.4,6.2c0,0,0,0,0,0H46.9c-3.2,0.2-6-2.3-6.2-5.5c0-0.2,0-0.5,0-0.7V46.9c-0.2-3.2,2.3-6,5.5-6.2
				c0.2,0,0.5,0,0.7,0h71.4c3.2-0.2,6,2.2,6.1,5.4c0,0,0,0,0,0C124.5,46.5,124.5,46.7,124.4,46.9z"/>
		</g>
	</g>
</g>
</svg>
