<?xml version="1.0" encoding="utf-8"?>
<!-- Generator: Adobe Illustrator 24.3.0, SVG Export Plug-In . SVG Version: 6.00 Build 0)  -->
<svg version="1.1" id="图层_1" xmlns="http://www.w3.org/2000/svg" xmlns:xlink="http://www.w3.org/1999/xlink" x="0px" y="0px"
	 viewBox="0 0 157.1 165" style="enable-background:new 0 0 157.1 165;" xml:space="preserve">
<style type="text/css">
	.st0{fill:#0c7da9;}
</style>
<g id="图层_2_1_">
	<g id="图层_1-2">
		<path id="联合_1" class="st0" d="M14.7,165c-8.2-0.1-14.8-6.8-14.7-15V15C-0.1,6.8,6.5,0.1,14.7,0h127.8l0,0
			c8.2,0.1,14.8,6.8,14.7,15c0,0,0,0,0,0l0,0v135c0.1,8.2-6.5,14.9-14.7,15c0,0,0,0,0,0H14.7z M14.7,22.5v120
			c-0.1,4.1,3.2,7.4,7.3,7.5c0,0,0,0,0,0h113.1c4.1,0,7.4-3.4,7.3-7.5c0,0,0,0,0,0l0,0v-120c0-4.1-3.2-7.4-7.3-7.5H22
			C17.9,15,14.6,18.4,14.7,22.5C14.7,22.5,14.7,22.5,14.7,22.5z M52.8,127.6l-22.5-22.5c-2-2-2.6-5-1.5-7.6c1.1-2.6,3.6-4.3,6.4-4.3
			h86.5c3.8,0.4,6.7,3.8,6.3,7.7c-0.3,3.3-3,5.9-6.3,6.3H52.2l10.6,10.6c2.7,2.7,2.7,7.1,0,9.8c-1.3,1.3-3.1,2-5,2
			C55.9,129.6,54.1,128.9,52.8,127.6L52.8,127.6z M35.3,72.4c-3.8,0.4-7.3-2.4-7.7-6.3c-0.4-3.8,2.4-7.3,6.3-7.7c0.5,0,0.9,0,1.4,0
			H105L94.4,47.9c-2.4-3-1.9-7.4,1.1-9.8c2.6-2.1,6.2-2.1,8.8,0l22.5,22.5c2,2,2.6,5,1.5,7.6c-1.1,2.6-3.6,4.3-6.3,4.4L35.3,72.4z"
			/>
	</g>
</g>
</svg>
