<?xml version="1.0" standalone="no"?><!DOCTYPE svg PUBLIC "-//W3C//DTD SVG 1.1//EN" "http://www.w3.org/Graphics/SVG/1.1/DTD/svg11.dtd"><svg t="1649247739753" class="icon" viewBox="0 0 1024 1024" version="1.1" xmlns="http://www.w3.org/2000/svg" p-id="1024" xmlns:xlink="http://www.w3.org/1999/xlink" width="200" height="200"><defs><style type="text/css">@font-face { font-family: feedback-iconfont; src: url("//at.alicdn.com/t/font_1031158_u69w8yhxdu.woff2?t=1630033759944") format("woff2"), url("//at.alicdn.com/t/font_1031158_u69w8yhxdu.woff?t=1630033759944") format("woff"), url("//at.alicdn.com/t/font_1031158_u69w8yhxdu.ttf?t=1630033759944") format("truetype"); }
</style></defs><path d="M958.859 536.419c0.532 186.010-149.076 370.341-354.766 412.923-223.061 46.177-443.013-79.455-516.063-294.768-57.338-168.996-7.1-358.319 126.34-476.455 63.703-56.398 137.348-92.565 221.18-106.721 104.841-17.707 203.902 0.038 296.761 51.914 14.624 8.169 19.452 24.848 11.58 38.72-7.687 13.547-24.3 18.112-38.664 10.050-40.238-22.581-82.838-38.626-128.472-45.784-114.416-17.953-217.982 8.108-308.762 80.026-77.917 61.729-126.011 142.613-141.741 240.771-19.445 121.353 11.306 229.855 91.989 322.907 57.237 66.009 129.681 107.174 215.258 125.154 161.058 33.841 329.558-40.314 413.911-182.306 42.597-71.703 60.652-149.261 54.247-232.347-4.268-55.395-20.167-107.459-46.939-156.175-1.395-2.534-2.847-5.045-4.126-7.637-6.737-13.647-1.762-29.928 11.283-37.047 13.577-7.408 29.769-3.125 37.695 10.464 13.538 23.214 24.586 47.608 33.555 72.947 17.096 48.298 25.668 98.050 25.732 173.364v0z" p-id="1025" fill="#01d38b"></path><path d="M623.642 639.456c2.472-2.279 4.013-3.604 5.447-5.037 28.41-28.39 56.778-56.824 85.229-85.171 10.479-10.441 24.458-12.318 35.881-5.114 13.805 8.707 17.208 27.556 7.269 40.516-1.286 1.676-2.766 3.226-4.265 4.724-45.457 45.479-90.907 90.966-136.406 136.402-12.866 12.847-31.323 12.697-42.408-0.182-4.759-5.531-6.721-12.032-6.705-19.24 0.022-10.426 0-20.855 0-31.283 0-118.372-0.004-236.738 0.004-355.106 0-15.034 6.034-25.092 17.695-29.68 17.83-7.018 36.889 5.427 38.201 24.976 0.143 2.116 0.054 4.245 0.054 6.369v309.924c0.004 2.221 0.004 4.442 0.004 7.903v0z" p-id="1026" fill="#01d38b"></path><path d="M400.095 383.914c-2.483 2.356-4.001 3.739-5.454 5.187-28.414 28.399-56.87 56.75-85.191 85.237-8.219 8.27-17.807 11.534-28.997 8.371-19.008-5.369-26.302-28.244-14.207-43.861 1.294-1.673 2.808-3.187 4.307-4.689 45.193-45.208 90.429-90.379 135.564-135.645 6.624-6.644 14.098-10.545 23.682-10 13.744 0.784 25.115 11.944 25.972 25.717 0.131 2.116 0.092 4.249 0.092 6.369 0.004 127.464 0.011 254.928-0.038 382.395 0 3.828-0.097 7.783-1.024 11.461-3.523 13.999-16.095 22.28-30.647 20.561-13.426-1.583-23.821-13.032-24.007-26.895-0.197-14.868-0.062-29.742-0.062-44.61v-271.731c0.007-2.105 0.007-4.225 0.007-7.868v0z" p-id="1027" fill="#01d38b"></path></svg>