<?xml version="1.0" encoding="utf-8"?>
<!-- Generator: Adobe Illustrator 24.3.0, SVG Export Plug-In . SVG Version: 6.00 Build 0)  -->
<svg version="1.1" id="图层_1" xmlns="http://www.w3.org/2000/svg" xmlns:xlink="http://www.w3.org/1999/xlink" x="0px" y="0px"
	 viewBox="0 0 150.3 160" style="enable-background:new 0 0 150.3 160;" xml:space="preserve">
<style type="text/css">
	.st0{fill:#267794;}
</style>
<g id="图层_2_1_">
	<g id="图层_1-2">
		<polygon class="st0" points="17.6,0 0,0 0,160 150.3,160 150.3,143.6 17.6,143.6 		"/>
		<path class="st0" d="M85.3,66h28.1c5,0.1,10.1-0.7,14.8-2.3c4.3-1.4,8.3-3.7,11.7-6.7c3.3-2.8,5.9-6.3,7.6-10.2
			c1.9-4.2,2.8-8.8,2.7-13.4c0.1-4.8-0.8-9.5-2.7-13.8c-1.7-4-4.3-7.6-7.6-10.5c-3.4-3-7.4-5.2-11.7-6.7c-4.8-1.6-9.8-2.4-14.9-2.4
			H67.7v123.6h17.6V66z M85.3,14.4h28.1c2.7,0,5.4,0.5,8,1.5c4.6,1.7,8.2,5.4,9.8,10c0.9,2.5,1.3,5.1,1.3,7.7c0,2.5-0.4,4.9-1.3,7.2
			c-0.8,2.2-2.1,4.1-3.8,5.7c-1.7,1.7-3.8,2.9-6,3.8c-2.6,0.9-5.3,1.4-8,1.4H85.3V14.4z"/>
	</g>
</g>
</svg>
