<?xml version="1.0" standalone="no"?><!DOCTYPE svg PUBLIC "-//W3C//DTD SVG 1.1//EN" "http://www.w3.org/Graphics/SVG/1.1/DTD/svg11.dtd"><svg t="1649247906543" class="icon" viewBox="0 0 1024 1024" version="1.1" xmlns="http://www.w3.org/2000/svg" p-id="1523" xmlns:xlink="http://www.w3.org/1999/xlink" width="200" height="200"><defs><style type="text/css">@font-face { font-family: feedback-iconfont; src: url("//at.alicdn.com/t/font_1031158_u69w8yhxdu.woff2?t=1630033759944") format("woff2"), url("//at.alicdn.com/t/font_1031158_u69w8yhxdu.woff?t=1630033759944") format("woff"), url("//at.alicdn.com/t/font_1031158_u69w8yhxdu.ttf?t=1630033759944") format("truetype"); }
</style></defs><path d="M512 960C265 960 64 758.8 64 511.6c0-101.8 33.2-197.8 96-277.5 9.5-11.9 26.7-13.9 38.4-4.5 11.9 9.3 13.9 26.5 4.6 38.4-55.2 70-84.3 154.2-84.3 243.6 0 217.1 176.4 393.7 393.3 393.7s393.3-176.6 393.3-393.7c0-89.4-29.2-173.6-84.3-243.6-9.3-11.9-7.3-29.1 4.6-38.4 11.8-9.2 29-7.3 38.4 4.6 62.8 79.8 96.1 175.7 96.1 277.5C960 758.8 759 960 512 960z" p-id="1524" fill="#a12cfb"></path><path d="M848.5 792.1c-10.6 0-20.8-6.3-25.2-16.7-53-125.5-175.2-206.6-311.3-206.6-135.9 0-258.1 81-311.2 206.3-5.9 13.9-21.9 20.4-35.9 14.5-13.9-5.9-20.4-21.9-14.5-35.9C212.1 608.2 354.1 514.1 512 514.1c158.1 0 300.1 94.2 361.7 240 5.9 13.9-0.6 29.9-14.5 35.8-3.5 1.5-7.1 2.2-10.7 2.2zM512 487.1c-116.5 0-211.4-94.9-211.4-211.6S395.5 64 512 64s211.4 94.9 211.4 211.6S628.5 487.1 512 487.1z m0-368.4c-86.4 0-156.7 70.4-156.7 156.9S425.6 432.4 512 432.4 668.7 362 668.7 275.5 598.4 118.7 512 118.7z" p-id="1525" fill="#a12cfb"></path><path d="M512 394.2c-56.7 0-107.6-38-123.7-92.4-2-6.7 1.8-13.7 8.5-15.7 6.8-1.9 13.7 1.8 15.7 8.5 12.9 43.7 53.8 74.3 99.5 74.3 29.6 0 57.9-12.8 77.6-35 4.6-5.2 12.6-5.7 17.8-1.1 5.2 4.6 5.7 12.6 1.1 17.8-24.5 27.8-59.7 43.6-96.5 43.6zM622.1 315.4c-1.4 0-2.7-0.2-4-0.7-6.6-2.2-10.1-9.4-7.9-16l1.4-4.4c2-6.6 9-10.5 15.7-8.4 6.7 2 10.4 9.1 8.4 15.8l-1.6 5.2c-1.8 5.2-6.8 8.5-12 8.5z" p-id="1526" fill="#a12cfb"></path><path d="M571.9 715.1c8.8-12.2 14-27.1 14-43.3 0-16.2-5.2-31.1-14-43.3L512 671.8l59.9 43.3zM452.1 628.6c-8.8 12.2-14 27.1-14 43.3 0 16.2 5.2 31.1 14 43.3l59.9-43.3-59.9-43.3z" p-id="1527" fill="#a12cfb"></path></svg>