<?xml version="1.0" encoding="utf-8"?>
<!-- Generator: Adobe Illustrator 24.3.0, SVG Export Plug-In . SVG Version: 6.00 Build 0)  -->
<svg version="1.1" id="图层_1" xmlns="http://www.w3.org/2000/svg" xmlns:xlink="http://www.w3.org/1999/xlink" x="0px" y="0px"
	 viewBox="0 0 174 174" style="enable-background:new 0 0 174 174;" xml:space="preserve">
<style type="text/css">
	.st0{fill:#dec708;}
</style>
<g id="图层_2_1_">
	<g id="图层_1-2">
		<path id="联合_2" class="st0" d="M4.8,115.3c-15.6-45.4,8.5-94.9,54-110.6s94.9,8.5,110.6,54c5.6,16.4,6.2,34,1.8,50.8
			c-1.3,5-3.1,9.9-5.4,14.5c-1.8,3.6-6.1,5.2-9.8,3.4c-3.6-1.7-5.1-6-3.5-9.6c1.9-3.9,3.3-7.9,4.5-12.1c10.5-38.7-12.4-78.6-51.1-89
			s-78.6,12.4-89,51.1s12.4,78.6,51.1,89c19,5.1,39.3,2.3,56.2-7.8c3.5-2.1,8-0.9,10.1,2.5c2.1,3.5,0.9,8-2.5,10.1
			c-5.2,3.1-10.6,5.6-16.3,7.5C69.9,184.9,20.4,160.7,4.8,115.3z M115.9,114l7.4-3.5L102.6,63l-15.1,51.8h-10L59.3,63.2l-18.6,51.7
			H31l23-66.5h10.1l17.1,48.5l16-48.6h9.8l24.8,58.2l8-3.2l-0.3,30.4L115.9,114z"/>
	</g>
</g>
</svg>
