<?xml version="1.0" encoding="utf-8"?>
<!-- Generator: Adobe Illustrator 24.3.0, SVG Export Plug-In . SVG Version: 6.00 Build 0)  -->
<svg version="1.1" id="图层_1" xmlns="http://www.w3.org/2000/svg" xmlns:xlink="http://www.w3.org/1999/xlink" x="0px" y="0px"
	 viewBox="0 0 156.5 165" style="enable-background:new 0 0 156.5 165;" xml:space="preserve">
<style type="text/css">
	.st0{fill:#e20911;}
</style>
<g id="图层_2_1_">
	<g id="图层_1-2">
		<path id="SKU销毁" class="st0" d="M155.8,139.6c-7.4,20-29.4,30.3-49.5,23.1c-46.9-18.9-10.6-63.4-10.6-63.4
			c-2.8,17.6,11.6,16.2,11.6,16.2c-2.2-34.4,16.5-41.2,16.5-41.2c-5.6,20.7,18.9,32.7,18.9,32.7
			C153.3,114.1,158.5,127.1,155.8,139.6L155.8,139.6z M132.6,130.4c0,0-13.6-5.5-10.5-14.9c0,0-10.4,3.1-9.2,18.8
			c-3.1,0.5-6.1-1.7-6.6-4.8c0,0,0,0,0,0c-0.1-0.9-0.1-1.8,0.2-2.6c0.6-1.9-20.2,20.3,5.9,28.9c0,0,19.3,5.7,27.5-10.5
			C141.4,139.2,138.3,132.9,132.6,130.4z M33,33h82.5v16.5H33V33z M33,66h49.5v16.5H33V66z M140.2,66c-4.6,0-8.2-3.7-8.2-8.2
			c0,0,0,0,0,0V16.5H16.5v132H66c4.6,0,8.2,3.7,8.2,8.2S70.6,165,66,165H16.5C7.4,165,0,157.6,0,148.5c0,0,0,0,0,0v-132
			C0,7.4,7.4,0,16.5,0c0,0,0,0,0,0H132c9.1,0,16.5,7.4,16.5,16.5c0,0,0,0,0,0v41.3C148.5,62.3,144.8,66,140.2,66L140.2,66z"/>
	</g>
</g>
</svg>
