<?xml version="1.0" standalone="no"?><!DOCTYPE svg PUBLIC "-//W3C//DTD SVG 1.1//EN" "http://www.w3.org/Graphics/SVG/1.1/DTD/svg11.dtd"><svg t="1649247937069" class="icon" viewBox="0 0 1024 1024" version="1.1" xmlns="http://www.w3.org/2000/svg" p-id="1703" xmlns:xlink="http://www.w3.org/1999/xlink" width="200" height="200"><defs><style type="text/css">@font-face { font-family: feedback-iconfont; src: url("//at.alicdn.com/t/font_1031158_u69w8yhxdu.woff2?t=1630033759944") format("woff2"), url("//at.alicdn.com/t/font_1031158_u69w8yhxdu.woff?t=1630033759944") format("woff"), url("//at.alicdn.com/t/font_1031158_u69w8yhxdu.ttf?t=1630033759944") format("truetype"); }
</style></defs><path d="M512 75.63636406a436.36363594 436.36363594 0 1 0 436.36363594 436.36363594A436.36363594 436.36363594 0 0 0 512 75.63636406z m0 808.8A372.43636406 372.43636406 0 1 1 884.43636406 512 373.96363594 373.96363594 0 0 1 512 884.43636406z" p-id="1704" fill="#fb672c"></path><path d="M555.63636406 509.81818156l102.10909032-102.10909031a33.38181844 33.38181844 0 0 0-1e-8-46.90909125 30.76363594 30.76363594 0 0 0-43.63636312 0l-104.29090969 102.32727281-102.10909031-102.32727281a31.63636406 31.63636406 0 1 0-43.63636406 44.72727281l102.10909125 102.10909125-102.10909125 102.32727188a31.2 31.2 0 0 0 0 44.72727281 32.07272719 32.07272719 0 0 0 23.34545437 8.50909125 32.94545437 32.94545437 0 0 0 23.56363688-8.50909125L512 552.36363594l102.10909125 102.32727281a32.94545437 32.94545437 0 0 0 23.56363594 8.50909125 32.07272719 32.07272719 0 0 0 23.34545437-8.50909125 31.2 31.2 0 0 0 0-44.72727281z" p-id="1705" fill="#fb672c"></path></svg>