<?xml version="1.0" standalone="no"?><!DOCTYPE svg PUBLIC "-//W3C//DTD SVG 1.1//EN" "http://www.w3.org/Graphics/SVG/1.1/DTD/svg11.dtd"><svg t="1678935809898" class="icon" viewBox="0 0 1024 1024" version="1.1" xmlns="http://www.w3.org/2000/svg" p-id="6186" width="32" height="32" xmlns:xlink="http://www.w3.org/1999/xlink"><path d="M231.969 632v79.969c-0.094 41.906 32.156 76.875 73.969 79.968h126V872h-120C223.625 872 152 800.375 152 711.969V632h79.969zM752 432.031L927.969 872h-86.157l-48-120H630.22l-48 120h-86.157l175.97-439.969H752z m-40.031 115.406l-49.875 124.594h99.656l-49.781-124.593z m-360-435.468v79.969H512v280.03H351.969v120H272v-120H111.969V192.032H272V111.97h79.969z m360 40.031C800.375 152 872 223.625 872 312.031V392h-79.969v-79.969c0-44.156-35.812-79.969-79.968-79.969h-120V152h119.906zM272 272h-79.969v120H272V272z m160.031 0h-79.969v120h79.97V272z" p-id="6187" fill="#1CE89F"></path></svg>