<?xml version="1.0" encoding="utf-8"?>
<!-- Generator: Adobe Illustrator 24.3.0, SVG Export Plug-In . SVG Version: 6.00 Build 0)  -->
<svg version="1.1" id="图层_1" xmlns="http://www.w3.org/2000/svg" xmlns:xlink="http://www.w3.org/1999/xlink" x="0px" y="0px"
	 viewBox="0 0 16 16" style="enable-background:new 0 0 16 16;" xml:space="preserve">
<style type="text/css">
	.st0{fill:#607D8B;}
</style>
<g>
	<path class="st0" d="M14.3,12.2c-0.1,0-0.1-0.1-0.2-0.1C14,12,14,12,14,12s-0.1,0-0.1-0.1c-0.1,0-0.2-0.1-0.2-0.1
		c-0.1,0-0.1-0.1-0.3-0.2c-0.1-0.1-0.2-0.2-0.2-0.2c0,0,0,0-0.1,0c0,0-0.1,0-0.1,0c0,0,0,0-0.1-0.1c0,0-0.1-0.1-0.2-0.1
		c-0.1,0-0.1-0.1-0.2-0.1s-0.1,0-0.1,0c0,0,0,0-0.1,0c-0.1,0-0.1-0.1-0.1-0.1c0,0,0,0-0.1-0.1c0,0,0,0-0.1,0c0,0-0.2-0.1-0.3-0.2
		c0,0,0,0-0.1,0s0,0-0.1-0.1s-0.1-0.1-0.1-0.1c-0.3-0.2-0.4-0.3-0.4-0.3c0,0,0-8.1,0-8.1s0-0.2,0-0.2c0-0.1-0.2-0.2-0.2-0.2L8.4,0.1
		c0,0-0.1-0.1-0.4-0.1S7.7,0.2,7.7,0.2S6,1.1,5.9,1.1c-0.1,0-0.1,0.1-0.1,0.1c0,0,0.2,0.1,0.2,0.1l2.3,1.4c0,0,0.1,0.1,0.2,0.1
		l0,0.1c0,0,0,8.9,0,8.9c0,0,0.1,0.1,0.1,0.1c0,0,2.9,1.9,2.9,1.9c0,0,0.1,0.1,0.1,0.1c0,0,0.1,0,0.2,0c0,0,0.1,0,0.1-0.1
		c0,0,2.5-1.4,2.5-1.4C14.5,12.4,14.5,12.3,14.3,12.2z"/>
	<path class="st0" d="M7.3,3.6c0,0-2.7-1.7-2.7-1.7l0,7.7l2.7,1.6L7.3,3.6z"/>
	<path class="st0" d="M15,4.3c0-0.3-0.1-0.4-0.4-0.6c-0.1-0.1-2-1.1-2-1.1s-0.1-0.1-0.1,0l0,7.1l0,0c0,0,0.1,0.1,0.1,0.1
		c0,0,2.3,1.4,2.3,1.4c0.1,0,0.1,0.1,0.1-0.1C15,10.9,15,4.4,15,4.3z"/>
	<path class="st0" d="M3.6,10.3c0,0-0.1,0-0.1-0.1c-0.1,0-0.1,0.3-0.1-3.9c0-3.5,0-3.8,0-3.8c0,0,0,0-0.1,0C3.1,2.7,1.7,3.5,1.7,3.5
		C1.5,3.6,1.3,3.8,1.1,4C1,4.2,1,4.4,1,4.4l0,7.1l0,0.1C1.1,11.9,1.1,12,1.1,12c0,0,0,0.1,0.1,0.1c0.1,0.1,0.2,0.2,0.4,0.3
		c0,0,6,3.5,6,3.5c0.1,0,0.5,0.1,0.7,0c0.1,0,0.2-0.1,0.4-0.2c0.1,0,0.2-0.1,0.2-0.1c0,0,0,0,0.1,0c0.1,0,0.1-0.1,0.2-0.1
		c0,0,0.1-0.1,0.1-0.1c0,0,0.1-0.1,0.2-0.1c0.1,0,0.1-0.1,0.2-0.1c0,0,0.1-0.1,0.2-0.1C10,15,10,15,10.1,15c0,0,0.1,0,0.1-0.1
		c0,0,0.1,0,0.1,0c0,0,0,0,0.1,0c0,0,0.1,0,0.1-0.1c0.1-0.1,0.1-0.1,0-0.2C10.4,14.5,3.6,10.4,3.6,10.3z"/>
</g>
</svg>
