<?xml version="1.0" encoding="utf-8"?>
<!-- Generator: Adobe Illustrator 24.3.0, SVG Export Plug-In . SVG Version: 6.00 Build 0)  -->
<svg version="1.1" id="图层_1" xmlns="http://www.w3.org/2000/svg" xmlns:xlink="http://www.w3.org/1999/xlink" x="0px" y="0px"
	 viewBox="0 0 64 64" style="enable-background:new 0 0 64 64;" xml:space="preserve">
<style type="text/css">
	.st0{opacity:0.9;fill:#394877;}
	.st1{opacity:0.5;fill:#55c8dd;}
	.st2{fill:none;stroke:#d6ad0e;stroke-width:2;stroke-miterlimit:10;}
</style>
<path class="st0" d="M0,32c0,17.7,14.3,32,32,32s32-14.3,32-32S49.7,0,32,0S0,14.3,0,32z"/>
<path class="st1" d="M49,51H36c-1.1,0-2-0.9-2-2V36c0-1.1,0.9-2,2-2h13c1.1,0,2,0.9,2,2v13C51,50.1,50.1,51,49,51z"/>
<path class="st2" d="M47.3,28h-9.5c-1,0-1.7-0.8-1.7-1.7v-9.5c0-1,0.8-1.7,1.7-1.7h9.5c1,0,1.7,0.8,1.7,1.7v9.5
	C49,27.2,48.2,28,47.3,28z"/>
<path class="st2" d="M26.3,28h-9.5c-1,0-1.7-0.8-1.7-1.7v-9.5c0-1,0.8-1.7,1.7-1.7h9.5c1,0,1.7,0.8,1.7,1.7v9.5
	C28,27.2,27.2,28,26.3,28z"/>
<path class="st2" d="M26.3,49h-9.5c-1,0-1.7-0.8-1.7-1.7v-9.5c0-1,0.8-1.7,1.7-1.7h9.5c1,0,1.7,0.8,1.7,1.7v9.5
	C28,48.2,27.2,49,26.3,49z"/>
</svg>
