<?xml version="1.0" standalone="no"?><!DOCTYPE svg PUBLIC "-//W3C//DTD SVG 1.1//EN" "http://www.w3.org/Graphics/SVG/1.1/DTD/svg11.dtd">
<svg t="1678950045528" class="icon" viewBox="0 0 1024 1024" version="1.1" xmlns="http://www.w3.org/2000/svg" p-id="8384" xmlns:xlink="http://www.w3.org/1999/xlink" width="128" height="128">
<path d="M830.256 266.192l47.392 70.096 54.768 81.392c17.712 26.304 14.88 61.984-6.944 84.752l-367.632 384.8a63.072 63.072 0 0 1-91.776 0L98.56 502.24c-21.856-22.752-24.672-58.432-6.96-84.752L267.28 156.496C279.44 138.72 299.088 128 320.224 128h383.648c21.136 0 40.784 10.736 52.752 28.672l73.632 109.52z" fill="#0F1F27" p-id="8385" data-spm-anchor-id="a313x.7781069.0.i21" class=""></path>
<path d="M830.256 266.192h-338.56c-6.24 0-15.584 0.272-25.104 2.64-23.072 5.648-40.864 17.84-57.504 46.704-9.52 16.384-11.104 39.408-7.68 57.616 3.536 18.672 13.056 36.88 26.432 49.344 0.8 0.464 1.328 1.104 2.032 1.648 50.288 43.68 102.96 89.296 114.24 99.136 15.312 13.376 26.592 39.408 4.224 67.824-10.048 12.736-38.848 22.112-62.624 1.36l-51.968-45.344-43.776 53.168c1.68 1.728 28.8 24.032 54.96 48.432 28.448 26.496 60.688 27.856 75.312 28.224 0.432 0 0.88-0.096 1.312-0.096 30.208-2.368 59.2-10.736 86.848-46.704 27.2-35.312 37.072-107.968-15.76-156.208l-1.952-1.728-88.768-77.12s-12.688-11.104-17.888-15.36c-8.096-6.848-10.56-18.4-7.216-26.88 3.088-7.728 8.8-16.736 24.32-16.736l376.512 0.176 54.768 81.392c17.712 26.304 14.88 61.984-6.944 84.752l-367.632 384.8a63.072 63.072 0 0 1-91.776 0L98.56 502.24c-21.856-22.752-24.672-58.432-6.96-84.752L267.28 156.496C279.44 138.72 299.088 128 320.224 128h383.648c21.136 0 40.784 10.736 52.752 28.672l73.632 109.52z" fill="#1CE89F" p-id="8386" data-spm-anchor-id="a313x.7781069.0.i22" class="selected"></path>
</svg>